<svg width="121" height="19" viewBox="0 0 121 19" fill="none" xmlns="http://www.w3.org/2000/svg">
<path d="M13.1698 18L11.1058 12.696H4.31384L2.27384 18H0.0898438L6.78584 0.792H8.72984L15.4018 18H13.1698ZM8.53784 5.592C8.48984 5.464 8.40984 5.232 8.29784 4.896C8.18584 4.56 8.07384 4.216 7.96184 3.864C7.86584 3.496 7.78584 3.216 7.72184 3.024C7.64184 3.344 7.55384 3.672 7.45784 4.008C7.37784 4.328 7.28984 4.624 7.19384 4.896C7.11384 5.168 7.04184 5.4 6.97784 5.592L5.03384 10.776H10.4578L8.53784 5.592ZM35.578 11.952C35.578 13.136 35.338 14.208 34.858 15.168C34.378 16.112 33.642 16.864 32.65 17.424C31.674 17.968 30.426 18.24 28.906 18.24C26.778 18.24 25.154 17.664 24.034 16.512C22.93 15.344 22.378 13.808 22.378 11.904V0.863999H24.538V11.976C24.538 13.368 24.906 14.448 25.642 15.216C26.394 15.984 27.522 16.368 29.026 16.368C30.066 16.368 30.906 16.184 31.546 15.816C32.202 15.432 32.682 14.912 32.986 14.256C33.29 13.584 33.442 12.816 33.442 11.952V0.863999H35.578V11.952ZM49.6287 0.863999C51.0527 0.863999 52.2207 1.048 53.1327 1.416C54.0607 1.768 54.7487 2.304 55.1967 3.024C55.6447 3.744 55.8687 4.648 55.8687 5.736C55.8687 6.648 55.7007 7.408 55.3647 8.016C55.0287 8.624 54.5967 9.112 54.0687 9.48C53.5567 9.832 53.0127 10.112 52.4367 10.32L57.1407 18H54.6207L50.4687 10.92H47.0607V18H44.9007V0.863999H49.6287ZM49.5087 2.736H47.0607V9.096H49.6287C50.5567 9.096 51.3167 8.976 51.9087 8.736C52.5007 8.48 52.9327 8.112 53.2047 7.632C53.4927 7.152 53.6367 6.552 53.6367 5.832C53.6367 5.08 53.4847 4.48 53.1807 4.032C52.8927 3.584 52.4447 3.256 51.8367 3.048C51.2287 2.84 50.4527 2.736 49.5087 2.736ZM79.5823 9.408C79.5823 10.736 79.4143 11.944 79.0783 13.032C78.7423 14.104 78.2383 15.032 77.5663 15.816C76.9103 16.6 76.0863 17.2 75.0943 17.616C74.1183 18.032 72.9823 18.24 71.6863 18.24C70.3423 18.24 69.1743 18.032 68.1823 17.616C67.1903 17.184 66.3663 16.584 65.7103 15.816C65.0543 15.032 64.5663 14.096 64.2463 13.008C63.9263 11.92 63.7663 10.712 63.7663 9.384C63.7663 7.624 64.0543 6.088 64.6303 4.776C65.2063 3.464 66.0783 2.44 67.2463 1.704C68.4303 0.967999 69.9183 0.599999 71.7103 0.599999C73.4223 0.599999 74.8623 0.967999 76.0303 1.704C77.1983 2.424 78.0783 3.448 78.6703 4.776C79.2783 6.088 79.5823 7.632 79.5823 9.408ZM66.0463 9.408C66.0463 10.848 66.2463 12.088 66.6463 13.128C67.0463 14.168 67.6623 14.968 68.4943 15.528C69.3423 16.088 70.4063 16.368 71.6863 16.368C72.9823 16.368 74.0383 16.088 74.8543 15.528C75.6863 14.968 76.3023 14.168 76.7023 13.128C77.1023 12.088 77.3023 10.848 77.3023 9.408C77.3023 7.248 76.8543 5.56 75.9583 4.344C75.0623 3.112 73.6463 2.496 71.7103 2.496C70.4143 2.496 69.3423 2.776 68.4943 3.336C67.6623 3.88 67.0463 4.672 66.6463 5.712C66.2463 6.736 66.0463 7.968 66.0463 9.408ZM92.9083 0.863999C94.3323 0.863999 95.5003 1.048 96.4123 1.416C97.3403 1.768 98.0283 2.304 98.4763 3.024C98.9243 3.744 99.1483 4.648 99.1483 5.736C99.1483 6.648 98.9803 7.408 98.6443 8.016C98.3083 8.624 97.8763 9.112 97.3483 9.48C96.8363 9.832 96.2923 10.112 95.7163 10.32L100.42 18H97.9003L93.7483 10.92H90.3403V18H88.1803V0.863999H92.9083ZM92.7883 2.736H90.3403V9.096H92.9083C93.8363 9.096 94.5963 8.976 95.1883 8.736C95.7803 8.48 96.2123 8.112 96.4843 7.632C96.7723 7.152 96.9163 6.552 96.9163 5.832C96.9163 5.08 96.7643 4.48 96.4603 4.032C96.1723 3.584 95.7243 3.256 95.1163 3.048C94.5083 2.84 93.7323 2.736 92.7883 2.736ZM118.662 18L116.598 12.696H109.806L107.766 18H105.582L112.278 0.792H114.222L120.894 18H118.662ZM114.03 5.592C113.982 5.464 113.902 5.232 113.79 4.896C113.678 4.56 113.566 4.216 113.454 3.864C113.358 3.496 113.278 3.216 113.214 3.024C113.134 3.344 113.046 3.672 112.95 4.008C112.87 4.328 112.782 4.624 112.686 4.896C112.606 5.168 112.534 5.4 112.47 5.592L110.526 10.776H115.95L114.03 5.592Z" fill="white"/>
</svg>
