<svg width="121" height="40" viewBox="0 0 121 40" fill="none" xmlns="http://www.w3.org/2000/svg">
<path d="M13.1698 27L11.1058 21.696H4.31384L2.27384 27H0.0898438L6.78584 9.792H8.72984L15.4018 27H13.1698ZM8.53784 14.592C8.48984 14.464 8.40984 14.232 8.29784 13.896C8.18584 13.56 8.07384 13.216 7.96184 12.864C7.86584 12.496 7.78584 12.216 7.72184 12.024C7.64184 12.344 7.55384 12.672 7.45784 13.008C7.37784 13.328 7.28984 13.624 7.19384 13.896C7.11384 14.168 7.04184 14.4 6.97784 14.592L5.03384 19.776H10.4578L8.53784 14.592ZM35.578 20.952C35.578 22.136 35.338 23.208 34.858 24.168C34.378 25.112 33.642 25.864 32.65 26.424C31.674 26.968 30.426 27.24 28.906 27.24C26.778 27.24 25.154 26.664 24.034 25.512C22.93 24.344 22.378 22.808 22.378 20.904V9.864H24.538V20.976C24.538 22.368 24.906 23.448 25.642 24.216C26.394 24.984 27.522 25.368 29.026 25.368C30.066 25.368 30.906 25.184 31.546 24.816C32.202 24.432 32.682 23.912 32.986 23.256C33.29 22.584 33.442 21.816 33.442 20.952V9.864H35.578V20.952ZM49.6287 9.864C51.0527 9.864 52.2207 10.048 53.1327 10.416C54.0607 10.768 54.7487 11.304 55.1967 12.024C55.6447 12.744 55.8687 13.648 55.8687 14.736C55.8687 15.648 55.7007 16.408 55.3647 17.016C55.0287 17.624 54.5967 18.112 54.0687 18.48C53.5567 18.832 53.0127 19.112 52.4367 19.32L57.1407 27H54.6207L50.4687 19.92H47.0607V27H44.9007V9.864H49.6287ZM49.5087 11.736H47.0607V18.096H49.6287C50.5567 18.096 51.3167 17.976 51.9087 17.736C52.5007 17.48 52.9327 17.112 53.2047 16.632C53.4927 16.152 53.6367 15.552 53.6367 14.832C53.6367 14.08 53.4847 13.48 53.1807 13.032C52.8927 12.584 52.4447 12.256 51.8367 12.048C51.2287 11.84 50.4527 11.736 49.5087 11.736ZM79.5823 18.408C79.5823 19.736 79.4143 20.944 79.0783 22.032C78.7423 23.104 78.2383 24.032 77.5663 24.816C76.9103 25.6 76.0863 26.2 75.0943 26.616C74.1183 27.032 72.9823 27.24 71.6863 27.24C70.3423 27.24 69.1743 27.032 68.1823 26.616C67.1903 26.184 66.3663 25.584 65.7103 24.816C65.0543 24.032 64.5663 23.096 64.2463 22.008C63.9263 20.92 63.7663 19.712 63.7663 18.384C63.7663 16.624 64.0543 15.088 64.6303 13.776C65.2063 12.464 66.0783 11.44 67.2463 10.704C68.4303 9.968 69.9183 9.6 71.7103 9.6C73.4223 9.6 74.8623 9.968 76.0303 10.704C77.1983 11.424 78.0783 12.448 78.6703 13.776C79.2783 15.088 79.5823 16.632 79.5823 18.408ZM66.0463 18.408C66.0463 19.848 66.2463 21.088 66.6463 22.128C67.0463 23.168 67.6623 23.968 68.4943 24.528C69.3423 25.088 70.4063 25.368 71.6863 25.368C72.9823 25.368 74.0383 25.088 74.8543 24.528C75.6863 23.968 76.3023 23.168 76.7023 22.128C77.1023 21.088 77.3023 19.848 77.3023 18.408C77.3023 16.248 76.8543 14.56 75.9583 13.344C75.0623 12.112 73.6463 11.496 71.7103 11.496C70.4143 11.496 69.3423 11.776 68.4943 12.336C67.6623 12.88 67.0463 13.672 66.6463 14.712C66.2463 15.736 66.0463 16.968 66.0463 18.408ZM92.9083 9.864C94.3323 9.864 95.5003 10.048 96.4123 10.416C97.3403 10.768 98.0283 11.304 98.4763 12.024C98.9243 12.744 99.1483 13.648 99.1483 14.736C99.1483 15.648 98.9803 16.408 98.6443 17.016C98.3083 17.624 97.8763 18.112 97.3483 18.48C96.8363 18.832 96.2923 19.112 95.7163 19.32L100.42 27H97.9003L93.7483 19.92H90.3403V27H88.1803V9.864H92.9083ZM92.7883 11.736H90.3403V18.096H92.9083C93.8363 18.096 94.5963 17.976 95.1883 17.736C95.7803 17.48 96.2123 17.112 96.4843 16.632C96.7723 16.152 96.9163 15.552 96.9163 14.832C96.9163 14.08 96.7643 13.48 96.4603 13.032C96.1723 12.584 95.7243 12.256 95.1163 12.048C94.5083 11.84 93.7323 11.736 92.7883 11.736ZM118.662 27L116.598 21.696H109.806L107.766 27H105.582L112.278 9.792H114.222L120.894 27H118.662ZM114.03 14.592C113.982 14.464 113.902 14.232 113.79 13.896C113.678 13.56 113.566 13.216 113.454 12.864C113.358 12.496 113.278 12.216 113.214 12.024C113.134 12.344 113.046 12.672 112.95 13.008C112.87 13.328 112.782 13.624 112.686 13.896C112.606 14.168 112.534 14.4 112.47 14.592L110.526 19.776H115.95L114.03 14.592Z" fill="white"/>
</svg>
